<?xml version="1.0" encoding="UTF-8"?>
<svg version="1.1" xmlns="http://www.w3.org/2000/svg" width="3134" height="992">
<path d="M0 0 C5.3284654 0.00542751 10.65692019 -0.00092046 15.98538447 -0.0056737 C25.33794146 -0.01242713 34.6904751 -0.01182067 44.04303257 -0.00630661 C58.0441503 0.00191073 72.04524924 -0.00148602 86.04636742 -0.00707189 C109.91348792 -0.01625595 133.78059988 -0.01599329 157.64772115 -0.01051014 C181.82637597 -0.00498538 206.00502523 -0.0038343 230.18368039 -0.00798481 C230.94727375 -0.00811383 231.7108671 -0.00824286 232.49759965 -0.0083758 C239.49583525 -0.00955894 246.49407084 -0.01078675 253.49230642 -0.01206822 C271.0385427 -0.01527597 288.58477906 -0.01778822 306.13101551 -0.01982896 C306.93491489 -0.01992277 307.73881427 -0.02001657 308.56707423 -0.02011321 C348.1649713 -0.02466739 387.76286736 -0.02159994 427.36076436 -0.01777332 C429.09469684 -0.01760605 430.82862932 -0.01743878 432.5625618 -0.01727153 C433.85158186 -0.01714716 433.85158186 -0.01714716 435.16664273 -0.01702028 C446.4996577 -0.0159272 457.83267268 -0.01485398 469.16568766 -0.01383369 C470.03201215 -0.01375537 470.89833665 -0.01367705 471.79091341 -0.01359635 C511.95771002 -0.00999205 552.12450613 -0.01085147 592.29130281 -0.0126946 C596.67470077 -0.0128942 601.05809873 -0.01308519 605.44149669 -0.01327715 C618.65394005 -0.01385835 631.86638341 -0.01445223 645.07882676 -0.01507235 C685.36779452 -0.0169613 725.65676227 -0.01816186 765.94573006 -0.01876896 C766.84275257 -0.01878269 767.73977507 -0.01879643 768.66398008 -0.01881058 C826.74716815 -0.01968791 884.83035566 -0.01748729 942.91354356 -0.0130698 C943.84063054 -0.01299956 944.76771752 -0.01292932 945.72289805 -0.01285696 C976.77473096 -0.01050433 1007.82656385 -0.00799216 1038.87839674 -0.0054637 C1132.77797824 0.0021771 1226.67755774 0.00636426 1394.37296427 -0.00569436 C1425.41822898 -0.00822082 1456.46349368 -0.01071788 1487.5087584 -0.0130698 C1488.43562059 -0.01314029 1489.36248279 -0.01321078 1490.31743171 -0.0132834 C1548.37142837 -0.01769472 1606.42542465 -0.01965799 1664.47942147 -0.01876896 C1665.37613762 -0.01875544 1666.27285376 -0.01874193 1667.19674312 -0.01872801 C1707.46280574 -0.01811454 1747.72886832 -0.01683787 1787.99493089 -0.01494795 C1801.20120751 -0.01432887 1814.40748412 -0.01374019 1827.61376073 -0.01316185 C1831.99453167 -0.01296987 1836.3753026 -0.01277516 1840.75607353 -0.01257413 C1880.92304802 -0.01073658 1921.09002184 -0.01020247 1961.25699625 -0.01383369 C1962.12280935 -0.01391163 1962.98862246 -0.01398958 1963.88067232 -0.01406988 C1975.20772856 -0.01509343 1986.53478479 -0.01617872 1997.86184103 -0.01727153 C1998.72054886 -0.01735435 1999.57925669 -0.01743718 2000.46398597 -0.01752252 C2002.19642314 -0.01768964 2003.92886031 -0.0178569 2005.66129747 -0.01802431 C2045.20575404 -0.02183563 2084.75020942 -0.02444346 2124.29466603 -0.01982896 C2125.49885301 -0.0196889 2125.49885301 -0.0196889 2126.72736701 -0.01954601 C2144.24377086 -0.01748546 2161.76017458 -0.01484618 2179.27657826 -0.0116384 C2186.26307852 -0.01036666 2193.24957879 -0.00916545 2200.23607907 -0.00798481 C2200.99817164 -0.00785397 2201.7602642 -0.00772314 2202.54545048 -0.00758835 C2226.69220375 -0.00347564 2250.83895126 -0.00547159 2274.9857041 -0.01101835 C2299.43232545 -0.01660602 2323.87893628 -0.01524979 2348.32555652 -0.00549464 C2362.22562075 -0.00015952 2376.12565902 -0.00026508 2390.02572201 -0.00845784 C2399.26324416 -0.01335396 2408.50074613 -0.01096809 2417.73826585 -0.00272413 C2422.97075522 0.00174425 2428.20319297 0.00319233 2433.43567998 -0.00435716 C2459.34299784 -0.03913369 2485.16779358 -0.04167057 2510.7691792 4.50481732 C2512.02013379 4.72242718 2513.27108838 4.94003704 2514.55995068 5.16424115 C2545.32871206 10.68151984 2574.62373121 20.38351603 2602.6441792 34.25481732 C2603.42680127 34.63992474 2604.20942334 35.02503216 2605.01576123 35.42180951 C2644.51472382 55.05432743 2682.88138154 85.1316484 2709.6441792 120.25481732 C2710.68978449 121.55246671 2711.73821946 122.84783863 2712.78871045 124.14153607 C2756.63065645 178.59357725 2781.83071761 249.27876344 2781.78462109 319.20820172 C2781.78721019 320.79561414 2781.79022485 322.38302592 2781.7936245 323.97043682 C2781.8016343 328.30361042 2781.80348068 332.6367674 2781.80422196 336.96994753 C2781.80608317 341.65537284 2781.81363595 346.34078975 2781.82035718 351.02621014 C2781.83389978 361.26045593 2781.83995931 371.49469779 2781.84436784 381.72895105 C2781.84713807 388.13144846 2781.85137691 394.53394438 2781.85587201 400.93644078 C2781.86806108 418.69664889 2781.87835999 436.45685582 2781.8817471 454.21706803 C2781.88196667 455.35231995 2781.88218623 456.48757188 2781.88241245 457.65722538 C2781.88273987 459.36397078 2781.88273987 459.36397078 2781.8830739 461.10519589 C2781.88351735 463.41052217 2781.88396392 465.71584846 2781.88441357 468.02117474 C2781.88474572 469.73642402 2781.88474572 469.73642402 2781.88508457 471.48632479 C2781.88902632 489.9842384 2781.9064629 508.48211247 2781.9297731 526.98001083 C2781.95356517 546.01558155 2781.96595257 565.05113251 2781.96711502 584.08671833 C2781.96802756 594.75652308 2781.97367267 605.42627633 2781.99193463 616.09606678 C2782.00744229 625.18811264 2782.01239403 634.2800911 2782.00419653 643.3721477 C2782.00032691 647.99931065 2782.0010355 652.62633835 2782.01525388 657.25348408 C2782.12537782 695.34958333 2778.08458693 731.71632585 2766.6441792 768.25481732 C2766.33560986 769.24207806 2766.02704053 770.2293388 2765.70912061 771.24651654 C2757.56102444 796.7025235 2745.6546306 822.09411711 2730.6441792 844.25481732 C2729.81273389 845.48893353 2729.81273389 845.48893353 2728.9644917 846.74798138 C2722.27729943 856.61451015 2715.41205852 866.20816277 2707.6441792 875.25481732 C2706.81531201 876.26673138 2705.98644482 877.27864544 2705.13246045 878.32122357 C2693.88524565 891.94684564 2681.36623555 905.39286642 2667.31922803 916.16228802 C2664.52745832 918.34612102 2661.84507023 920.6303185 2659.1519917 922.93450482 C2652.92162834 928.1801052 2646.324621 932.78312741 2639.5191792 937.25481732 C2638.93058118 937.64389264 2638.34198315 938.03296795 2637.73554883 938.43383343 C2627.96356102 944.88422209 2618.09219833 950.95552773 2607.6441792 956.25481732 C2606.26576856 956.96130413 2606.26576856 956.96130413 2604.85951123 957.68206341 C2589.53307905 965.47656319 2573.99383718 971.93741187 2557.6441792 977.25481732 C2556.65063428 977.57821087 2555.65708936 977.90160443 2554.63343701 978.23479779 C2543.4812235 981.80182579 2532.25614271 984.73169223 2520.7691792 987.00481732 C2519.8398457 987.19140912 2518.91051221 987.37800091 2517.95301709 987.57024701 C2514.52710806 988.20712021 2511.08919306 988.73460253 2507.6441792 989.25481732 C2506.86958912 989.37598207 2506.09499904 989.49714682 2505.29693654 989.62198323 C2484.24313137 992.80634556 2463.28943134 992.6825346 2442.05396846 992.6370433 C2436.67302917 992.62890906 2431.29211366 992.63842157 2425.91117689 992.64555384 C2416.46454708 992.65568845 2407.01796928 992.65477113 2397.57133839 992.64650321 C2383.42938078 992.63418191 2369.28746504 992.6392703 2355.14550644 992.64765113 C2331.03881807 992.66171319 2306.93214752 992.66103181 2282.82545743 992.6528085 C2258.40288427 992.64452238 2233.98032352 992.64279393 2209.5577496 992.6490205 C2208.78655283 992.64921405 2208.01535605 992.64940759 2207.22078968 992.64960699 C2200.15290425 992.65138169 2193.08501883 992.65322341 2186.01713344 992.65514563 C2168.29598835 992.65995735 2150.57484311 992.66372568 2132.85369763 992.66678674 C2131.63580652 992.6669978 2131.63580652 992.6669978 2130.39331154 992.66721312 C2090.39668224 992.67404493 2050.40005517 992.66944295 2010.40342603 992.66370327 C2008.65195699 992.66345236 2006.90048796 992.66320147 2005.14901893 992.66295059 C2004.28098128 992.66282622 2003.41294364 992.66270185 2002.51860182 992.66257372 C1991.07101368 992.6609341 1979.62342553 992.65932427 1968.17583737 992.65779383 C1967.30075826 992.65767635 1966.42567915 992.65755887 1965.52408249 992.65743782 C1924.95393788 992.65203171 1884.38379437 992.65332039 1843.8136496 992.6560852 C1839.38641781 992.65638459 1834.95918601 992.65667109 1830.53195421 992.65695902 C1817.18742067 992.65783081 1803.84288712 992.65872164 1790.49835358 992.65965182 C1749.80634631 992.66248527 1709.11433903 992.6642861 1668.42233167 992.66519673 C1667.51632864 992.66521733 1666.61032561 992.66523794 1665.67686794 992.66525917 C1607.01063159 992.6665752 1548.34439649 992.66327406 1489.67816052 992.65664799 C1488.74174373 992.65654264 1487.80532693 992.65643728 1486.84053387 992.65632873 C1455.47609102 992.65279978 1424.11164819 992.64903153 1392.74720537 992.64523884 C1297.90342526 992.63377781 1203.0596496 992.62749669 1033.67988278 992.64558484 C1002.32332116 992.64937453 970.96675953 992.65312012 939.61019788 992.65664799 C938.67404375 992.65675373 937.73788963 992.65685946 936.77336719 992.6569684 C878.13758687 992.66358535 819.50180742 992.66653029 760.86602673 992.66519673 C759.96032609 992.66517646 759.05462545 992.66515619 758.12147934 992.66513531 C717.45198488 992.6642151 676.78249052 992.6623001 636.11299616 992.65946522 C622.77438607 992.65853659 609.43577599 992.65765359 596.0971659 992.65678607 C591.67248882 992.6564981 587.24781174 992.65620603 582.82313466 992.6559045 C542.25292956 992.65314812 501.68272595 992.65234711 461.11252103 992.65779383 C459.80073622 992.65796921 459.80073622 992.65796921 458.46245071 992.65814812 C447.02141362 992.65968344 435.58037654 992.66131138 424.13933947 992.66295059 C423.27198881 992.66307483 422.40463814 992.66319907 421.51100412 992.66332707 C419.7611296 992.66357775 418.01125507 992.66382865 416.26138054 992.66407976 C376.31913977 992.6697967 336.37690163 992.67370859 296.43466077 992.66678674 C295.62380501 992.66664668 294.81294924 992.66650661 293.9775221 992.66636231 C276.28520682 992.66327149 258.59289185 992.65931258 240.90057696 992.65450089 C233.84392093 992.65259329 226.78726487 992.65079146 219.7306088 992.6490205 C218.96086291 992.64882426 218.19111702 992.64862801 217.3980455 992.64842581 C193.00807889 992.64225658 168.61812509 992.64525088 144.22815944 992.65357082 C119.53564358 992.661952 94.8431506 992.65991858 70.15063728 992.64528526 C56.11045304 992.63728209 42.07032663 992.63744174 28.03014516 992.64973005 C18.6998238 992.65707355 9.36954739 992.65349654 0.03923145 992.64112949 C-5.24605683 992.63442606 -10.53123013 992.63225673 -15.81651316 992.64357904 C-41.90299718 992.69560604 -67.36842836 992.10000968 -92.9808208 986.50481732 C-94.78135913 986.11966961 -94.78135913 986.11966961 -96.61827197 985.72674115 C-132.84669065 977.76668748 -168.0120875 964.24423669 -199.3558208 944.25481732 C-200.32866016 943.63461712 -200.32866016 943.63461712 -201.32115283 943.00188763 C-217.75284534 932.43720665 -232.92595873 920.41011744 -247.3558208 907.25481732 C-249.0847078 905.71283702 -250.81387274 904.17116831 -252.5433208 902.62981732 C-258.49098774 897.26762384 -264.07996316 891.72647332 -269.29722705 885.64934857 C-270.85163412 883.84128114 -272.42536836 882.04980424 -274.00816455 880.26653607 C-287.09942948 865.42611134 -298.16341704 849.19319517 -308.3558208 832.25481732 C-308.78459521 831.54454388 -309.21336963 830.83427044 -309.65513721 830.10247357 C-329.77073754 796.38549384 -342.1970163 758.23091224 -348.6058208 719.62981732 C-348.83277637 718.27473065 -348.83277637 718.27473065 -349.06431689 716.89226849 C-352.47525528 694.77898148 -352.65509601 672.64697748 -352.63192918 650.33611734 C-352.62943009 645.81372333 -352.63851512 641.29134876 -352.64596667 636.76896222 C-352.65862957 627.93910132 -352.66051787 619.10927095 -352.65816641 610.27940251 C-352.65637322 603.09009237 -352.65815419 595.9007914 -352.66239085 588.71148236 C-352.66298604 587.68278857 -352.66358123 586.65409478 -352.66419446 585.59422846 C-352.66540639 583.50344641 -352.66662053 581.41266436 -352.66783683 579.32188232 C-352.67868047 559.77156101 -352.67656528 540.22125701 -352.67045199 520.67093475 C-352.66528848 502.8554044 -352.67652902 485.03992882 -352.69555021 467.22440929 C-352.71500721 448.85743476 -352.72317072 430.49048602 -352.71942696 412.12350113 C-352.71752642 401.84162211 -352.719889 391.55978964 -352.73414149 381.27791912 C-352.74615727 372.52221635 -352.74734782 363.76658877 -352.73535133 355.01088477 C-352.7295325 350.55934991 -352.72816409 346.10795184 -352.74035373 341.65642674 C-352.95781753 256.23294384 -329.22898897 174.81412806 -271.3558208 110.25481732 C-270.90674365 109.74934369 -270.4576665 109.24387005 -269.99498096 108.72307904 C-260.07345544 97.57810382 -249.76527033 86.63039618 -238.03160205 77.37591107 C-235.2591612 75.17819518 -232.5966048 72.87850784 -229.9183208 70.56731732 C-215.90945936 58.92335388 -200.65617152 49.27127076 -184.6995708 40.54192669 C-182.63550898 39.40841274 -180.58740341 38.25192948 -178.5433208 37.08294232 C-123.56335751 6.08011933 -61.76239715 -0.08917578 0 0 Z " fill="#EC1C24" transform="translate(352.35582080017775,-0.25481731817126274)"/>
<path d="M0 0 C33.474375 -0.04125 66.94875 -0.0825 101.4375 -0.125 C117.22807251 -0.15231201 117.22807251 -0.15231201 133.33764648 -0.18017578 C146.30090332 -0.18920898 146.30090332 -0.18920898 152.39051819 -0.19088745 C156.59777483 -0.19273311 160.8049798 -0.20015665 165.01222229 -0.21115112 C210.1643957 -0.32388813 210.1643957 -0.32388813 231 2 C233.10071504 2.21542027 235.20154391 2.42973283 237.30247498 2.64303589 C266.0248153 5.56330944 297.53526235 12.80369754 320 32 C320.5878125 32.44472656 321.175625 32.88945312 321.78125 33.34765625 C337.71141387 45.76594309 345.648099 66.82292273 348.30810547 86.25024414 C350.28676879 103.62968002 350.33926113 121.99149051 346 139 C345.82839355 139.67417969 345.65678711 140.34835937 345.47998047 141.04296875 C341.80119516 155.06114618 335.67714587 167.10146679 326 178 C325.40832031 178.68578125 324.81664063 179.3715625 324.20703125 180.078125 C315.44897413 189.56446406 303.96161989 195.56118725 292 200 C290.33191298 200.66310475 288.66479155 201.32866453 287 202 C287.969375 202.3403125 288.93875 202.680625 289.9375 203.03125 C311.03896105 210.59121181 328.93021819 219.35822245 340.25 239.8125 C348.8281095 258.44249112 350.07668458 280.17554042 350.22979546 300.32233429 C350.24657296 302.45143733 350.26980662 304.58038866 350.29469299 306.70941162 C350.36453092 312.75183244 350.42564173 318.79430604 350.47680664 324.83691406 C350.50878447 328.56082544 350.5500768 332.28454158 350.59700203 336.00829315 C350.61287405 337.41310863 350.6252626 338.81796845 350.63390923 340.22284698 C350.53278996 353.5959399 350.53278996 353.5959399 355 366 C358.11785113 368.35355339 358.11785113 368.35355339 363 369 C363 372.96 363 376.92 363 381 C321.09 381 279.18 381 236 381 C233.93376523 374.11255077 232.45354242 368.41971293 231.875 361.4375 C231.80152344 360.67115234 231.72804688 359.90480469 231.65234375 359.11523438 C230.58050092 347.40958238 229.97517308 335.68466025 229.7890625 323.93359375 C229.77471161 323.0754155 229.76036072 322.21723724 229.74557495 321.33305359 C229.68864031 317.81884378 229.63363849 314.30478845 229.59863281 310.7902832 C229.41525421 285.21391781 229.41525421 285.21391781 218.18359375 262.8828125 C195.20400967 241.24950708 150.95221999 249.40905279 126 249 C126 292.56 126 336.12 126 381 C84.42 381 42.84 381 0 381 C0 255.27 0 129.54 0 0 Z " fill="#FEFEFE" transform="translate(2500,239)"/>
<path d="M0 0 C0.76495789 -0.00100708 1.52991577 -0.00201416 2.3180542 -0.00305176 C47.98438448 0.03731784 93.26099877 12.00269003 128.4375 42.25 C129.86835937 43.47976563 129.86835937 43.47976563 131.328125 44.734375 C158.3538278 68.46309033 175.24377382 102.0154651 181.4375 137.25 C181.4375 138.57 181.4375 139.89 181.4375 141.25 C142.1675 141.25 102.8975 141.25 62.4375 141.25 C60.4575 136.3 58.4775 131.35 56.4375 126.25 C54.16895104 122.68513735 52.03337269 119.51732244 49.4375 116.25 C48.80134766 115.33541016 48.80134766 115.33541016 48.15234375 114.40234375 C40.1230542 103.62296115 25.36312302 97.15166257 12.4375 95.25 C-8.08061736 93.87771926 -8.08061736 93.87771926 -27.5625 99.25 C-28.56667969 99.724375 -29.57085938 100.19875 -30.60546875 100.6875 C-48.76849118 110.26394782 -59.57811681 128.12599283 -65.5625 147.25 C-73.88443733 178.08853748 -75.26296223 210.8323273 -69.5625 242.25 C-69.42859863 242.99523926 -69.29469727 243.74047852 -69.15673828 244.50830078 C-65.32220727 264.69420162 -55.32276245 283.80666194 -38.33203125 295.828125 C-21.38709238 306.7746108 -0.38247447 309.74955597 19.34375 306.6328125 C36.20926157 302.26170514 53.67330282 292.89629577 63.4375 278.25 C65.7475 273.63 68.0575 269.01 70.4375 264.25 C52.2875 264.25 34.1375 264.25 15.4375 264.25 C15.4375 236.86 15.4375 209.47 15.4375 181.25 C71.8675 181.25 128.2975 181.25 186.4375 181.25 C186.4375 250.88 186.4375 320.51 186.4375 392.25 C159.7075 392.25 132.9775 392.25 105.4375 392.25 C103.7875 380.37 102.1375 368.49 100.4375 356.25 C97.034375 359.7459375 97.034375 359.7459375 93.5625 363.3125 C87.90678447 369.01017278 82.35902913 374.11178683 75.4375 378.25 C74.37144531 378.90226562 73.30539062 379.55453125 72.20703125 380.2265625 C32.9421076 403.76672436 -17.99219574 407.25572853 -62.05078125 396.7734375 C-106.40878966 385.3983043 -146.56844663 359.68176079 -170.26171875 319.7890625 C-202.18597191 264.39230892 -205.7542176 196.61614043 -189.52734375 135.70019531 C-176.60982523 89.50829964 -147.06960404 49.79720102 -105.32177734 25.97119141 C-95.33532824 20.38708311 -85.4906385 15.70249284 -74.5625 12.25 C-73.06218064 11.73008735 -71.56214504 11.2093545 -70.0625 10.6875 C-68.56407362 10.20343485 -67.06393148 9.7246622 -65.5625 9.25 C-64.16837891 8.78980469 -64.16837891 8.78980469 -62.74609375 8.3203125 C-55.03825674 5.92726563 -47.32830813 4.39222905 -39.375 3.0625 C-38.37782959 2.89564697 -37.38065918 2.72879395 -36.35327148 2.55688477 C-24.22801176 0.61088013 -12.26179045 0.01126181 0 0 Z " fill="#FEFEFE" transform="translate(1877.5625,228.75)"/>
<path d="M0 0 C102.63 0 205.26 0 311 0 C311 29.37 311 58.74 311 89 C249.62 89 188.24 89 125 89 C125 106.82 125 124.64 125 143 C176.81 143 228.62 143 282 143 C282 172.7 282 202.4 282 233 C230.19 233 178.38 233 125 233 C125 252.47 125 271.94 125 292 C188.69 292 252.38 292 318 292 C318 321.37 318 350.74 318 381 C213.06 381 108.12 381 0 381 C0 255.27 0 129.54 0 0 Z " fill="#FBB713" transform="translate(269,239)"/>
<path d="M0 0 C42.24 0 84.48 0 128 0 C139.82733051 32.25635593 139.82733051 32.25635593 143.8125 44.4609375 C145.03196964 48.09527793 146.41413206 51.61415905 147.8828125 55.15234375 C149.8109206 60.06699691 151.49223139 65.06979619 153.22021484 70.05761719 C155.26407839 75.94090823 157.38534952 81.78984989 159.5625 87.625 C162.16041868 94.59576786 164.59287701 101.60613164 166.87133789 108.68798828 C168.09851238 112.46274312 169.43944389 116.1540122 170.93359375 119.83203125 C173.1121863 125.19848164 175.0039488 130.64509495 176.875 136.125 C179.2034306 142.8900056 181.56901655 149.62998906 184.125 156.3125 C186.57476879 162.7203526 188.75476803 169.19899275 190.89331055 175.71655273 C192.39736242 180.27316308 194.0428364 184.71967405 195.8828125 189.15234375 C197.8109206 194.06699691 199.49223139 199.06979619 201.22021484 204.05761719 C203.26407839 209.94090823 205.38534952 215.78984989 207.5625 221.625 C210.18193686 228.65350571 212.60385748 235.72981947 214.93945312 242.85717773 C216.45985547 247.46807447 218.13770854 251.9656981 220.00390625 256.44921875 C221.54828875 260.40404922 222.82875243 264.44572914 224.14697266 268.47998047 C225.29907317 271.97859328 226.5221845 275.41221919 227.9375 278.8125 C229.86348426 283.46761175 231.43113217 288.21602368 233 293 C234.79483225 298.46814478 236.67568611 303.83517562 238.8828125 309.15234375 C240.8109206 314.06699691 242.49223139 319.06979619 244.22021484 324.05761719 C246.26407839 329.94090823 248.38534952 335.78984989 250.5625 341.625 C253.17834616 348.64387111 255.60066019 355.70943669 257.9284668 362.82861328 C259.53937938 367.72231637 261.3112718 372.50931934 263.3359375 377.25 C264 379 264 379 264 381 C222.75 381 181.5 381 139 381 C125 333 125 333 125 331 C83.75 331 42.5 331 0 331 C-0.33 333.31 -0.66 335.62 -1 338 C-1.44637539 339.8494305 -1.93015402 341.690284 -2.453125 343.51953125 C-2.88818359 345.05577148 -2.88818359 345.05577148 -3.33203125 346.62304688 C-3.63496094 347.67556641 -3.93789062 348.72808594 -4.25 349.8125 C-7.20595072 360.19809367 -10.10977567 370.59519241 -13 381 C-53.59 381 -94.18 381 -136 381 C-131.48363636 366.32181818 -131.48363636 366.32181818 -129.625 361.1875 C-128.98498047 359.41632813 -128.98498047 359.41632813 -128.33203125 357.609375 C-127.01576251 354.04271133 -125.66575595 350.49027336 -124.3125 346.9375 C-120.8287525 337.77017659 -117.68467853 328.48217969 -114.51489258 319.20288086 C-112.04845865 311.99311878 -109.4802611 304.85052343 -106.74609375 297.73828125 C-102.76261396 287.30988788 -99.12359322 276.76712819 -95.51538086 266.2043457 C-93.42723619 260.10031787 -91.29435395 254.02934875 -89 248 C-88.22424128 245.83509195 -87.45329998 243.6684508 -86.6875 241.5 C-84.95355856 236.62136595 -83.15972764 231.77473169 -81.3125 226.9375 C-77.82783797 217.77055654 -74.68466537 208.48214116 -71.51489258 199.20288086 C-69.04845865 191.99311878 -66.4802611 184.85052343 -63.74609375 177.73828125 C-59.76261396 167.30988788 -56.12359322 156.76712819 -52.51538086 146.2043457 C-50.42724594 140.10034637 -48.2951771 134.02902207 -46 128 C-45.24491359 125.89765325 -44.49483682 123.79349988 -43.75 121.6875 C-42.07022414 116.96313038 -40.35658047 112.25423891 -38.60742188 107.55517578 C-34.95958898 97.74798952 -31.50251125 87.88120047 -28.10839844 77.98339844 C-25.77354928 71.18333285 -23.32602425 64.44931543 -20.74609375 57.73828125 C-16.76261396 47.30988788 -13.12359322 36.76712819 -9.51538086 26.2043457 C-7.42726487 20.1004017 -5.30496053 14.02536161 -3 8 C-2.01 5.36 -1.02 2.72 0 0 Z " fill="#FEFEFE" transform="translate(1410,239)"/>
<path d="M0 0 C41.91 0 83.82 0 127 0 C129.60459893 5.20919785 131.48681073 9.01128448 133 14.375 C134.3595643 19.16989194 136.06367548 23.70500658 137.93847656 28.31396484 C139.7367665 32.86428359 141.29433348 37.49556899 142.875 42.125 C145.2034306 48.8900056 147.56901655 55.62998906 150.125 62.3125 C152.57334929 68.71663963 154.75359442 75.19109535 156.88891602 81.70556641 C158.42644088 86.36734586 160.11709436 90.91617276 162.00390625 95.44921875 C163.54828875 99.40404922 164.82875243 103.44572914 166.14697266 107.47998047 C167.29907317 110.97859328 168.5221845 114.41221919 169.9375 117.8125 C172.1606005 123.18574291 173.93600983 128.69812362 175.71850586 134.22973633 C177.28470629 139.03895552 179.06963421 143.71250331 180.97363281 148.39746094 C182.75744461 152.92063739 184.30420122 157.52446946 185.875 162.125 C188.2034306 168.8900056 190.56901655 175.62998906 193.125 182.3125 C195.57334929 188.71663963 197.75359442 195.19109535 199.88891602 201.70556641 C201.42644088 206.36734586 203.11709436 210.91617276 205.00390625 215.44921875 C206.54828875 219.40404922 207.82875243 223.44572914 209.14697266 227.47998047 C210.29907317 230.97859328 211.5221845 234.41221919 212.9375 237.8125 C215.1606005 243.18574291 216.93600983 248.69812362 218.71850586 254.22973633 C220.28470629 259.03895552 222.06963421 263.71250331 223.97363281 268.39746094 C225.75744461 272.92063739 227.30420122 277.52446946 228.875 282.125 C231.2034306 288.8900056 233.56901655 295.62998906 236.125 302.3125 C238.57334929 308.71663963 240.75359442 315.19109535 242.88891602 321.70556641 C244.42644088 326.36734586 246.11709436 330.91617276 248.00390625 335.44921875 C249.29612222 338.75830514 250.39691447 342.12453331 251.5 345.5 C253.14886766 350.54087751 254.94082883 355.47968505 256.953125 360.38671875 C258.27831092 363.69473883 259.52743713 367.02806146 260.75 370.375 C261.39195312 372.11910156 261.39195312 372.11910156 262.046875 373.8984375 C263 377 263 377 263 381 C222.08 381 181.16 381 139 381 C135.37 368.79 131.74 356.58 128 344 C127.01 340.7 126.02 337.4 125 334 C125 333.01 125 332.02 125 331 C83.75 331 42.5 331 0 331 C-0.66 334.3 -1.32 337.6 -2 341 C-2.57084249 343.23463573 -3.16940045 345.46251174 -3.8046875 347.6796875 C-4.14113281 348.85660156 -4.47757813 350.03351563 -4.82421875 351.24609375 C-5.17097656 352.44363281 -5.51773438 353.64117188 -5.875 354.875 C-6.38353516 356.65970703 -6.38353516 356.65970703 -6.90234375 358.48046875 C-9.08432977 366.07178893 -11.49632736 373.48898209 -14 381 C-54.26 381 -94.52 381 -136 381 C-134.82585278 376.30341112 -133.74195088 371.97600977 -132.16015625 367.46875 C-131.81919922 366.49292969 -131.47824219 365.51710938 -131.12695312 364.51171875 C-130.77568359 363.51785156 -130.42441406 362.52398438 -130.0625 361.5 C-129.71509766 360.50613281 -129.36769531 359.51226563 -129.00976562 358.48828125 C-126.67459894 351.8301977 -124.23354499 345.22216903 -121.7109375 338.6328125 C-118.02543951 328.9556862 -114.60753689 319.19560127 -111.24755859 309.40087891 C-109.18242452 303.38529288 -107.07072654 297.3912959 -104.88427734 291.41870117 C-103.77718461 288.39054884 -102.70046104 285.35201224 -101.625 282.3125 C-99.9112179 277.49734182 -98.1351737 272.71239167 -96.3125 267.9375 C-92.82798056 258.7704973 -89.68466743 249.48214717 -86.51489258 240.20288086 C-84.42699201 234.09962947 -82.30985166 228.02282237 -80 222 C-75.86692477 211.20390652 -71.99867039 200.33580029 -68.24755859 189.40087891 C-66.18242452 183.38529288 -64.07072654 177.3912959 -61.88427734 171.41870117 C-60.77718461 168.39054884 -59.70046104 165.35201224 -58.625 162.3125 C-56.9112179 157.49734182 -55.1351737 152.71239167 -53.3125 147.9375 C-49.82798056 138.7704973 -46.68466743 129.48214717 -43.51489258 120.20288086 C-41.42699201 114.09962947 -39.30985166 108.02282237 -37 102 C-32.86692477 91.20390652 -28.99867039 80.33580029 -25.24755859 69.40087891 C-23.18242452 63.38529288 -21.07072654 57.3912959 -18.88427734 51.41870117 C-17.77718461 48.39054884 -16.70046104 45.35201224 -15.625 42.3125 C-13.58454224 36.58424244 -11.46325529 30.89109153 -9.31225586 25.20385742 C-7.09080807 19.30266693 -4.98710141 13.36253681 -2.91625977 7.40698242 C-1.09928628 2.19857257 -1.09928628 2.19857257 0 0 Z " fill="#FEFEFE" transform="translate(2220,239)"/>
<path d="M0 0 C41.25 0 82.5 0 125 0 C125 96.36 125 192.72 125 292 C181.43 292 237.86 292 296 292 C296 321.37 296 350.74 296 381 C198.32 381 100.64 381 0 381 C0 255.27 0 129.54 0 0 Z " fill="#FFFFFF" transform="translate(977,239)"/>
<path d="M0 0 C41.25 0 82.5 0 125 0 C125 96.36 125 192.72 125 292 C181.43 292 237.86 292 296 292 C296 321.37 296 350.74 296 381 C198.32 381 100.64 381 0 381 C0 255.27 0 129.54 0 0 Z " fill="#FBB713" transform="translate(630,239)"/>
<path d="M0 0 C6.18075837 5.21930707 11.18312835 10.65122079 13.8125 18.375 C14.328125 17.715 14.84375 17.055 15.375 16.375 C16.5815625 14.89 16.5815625 14.89 17.8125 13.375 C18.32167969 12.74722656 18.83085937 12.11945312 19.35546875 11.47265625 C26.26041892 3.24043877 33.95607971 -2.9179215 44.8125 -4.625 C57.93111594 -5.60264963 69.45511201 -4.88670308 80.03515625 3.74609375 C90.52857147 13.36313583 94.64081222 25.42905942 95.8125 39.375 C95.93607236 42.50139247 95.93976641 45.62173833 95.92602539 48.75024414 C95.92617142 49.6391333 95.92631744 50.52802246 95.9264679 51.44384766 C95.92577744 54.34930966 95.91802608 57.2547056 95.91015625 60.16015625 C95.90828899 62.18753525 95.90686654 64.2149147 95.90586853 66.24229431 C95.90206764 71.5539171 95.89225831 76.86551213 95.88116455 82.17712402 C95.86908995 88.56327491 95.86453662 94.94943512 95.85871124 101.33559418 C95.84904509 111.01541536 95.82987157 120.69517577 95.8125 130.375 C75.6825 130.375 55.5525 130.375 34.8125 130.375 C34.75191406 124.56261719 34.69132812 118.75023437 34.62890625 112.76171875 C34.58842112 109.08397679 34.54765259 105.40624238 34.50585938 101.72851562 C34.43952077 95.88845352 34.37424343 90.04839282 34.31518555 84.20825195 C34.26751741 79.50090583 34.2151736 74.793633 34.15955925 70.08637428 C34.13914682 68.28862134 34.1204319 66.49084831 34.10342598 64.69305992 C34.07935742 62.17900697 34.04930614 59.66509252 34.01782227 57.15112305 C34.0120668 56.40449905 34.00631134 55.65787506 34.00038147 54.8886261 C33.95611424 51.78787071 33.80059331 49.33927994 32.8125 46.375 C27.52406882 45.85557397 27.52406882 45.85557397 22.875 47.75 C20.48812694 51.40051174 20.6405502 54.61237201 20.60717773 58.85400391 C20.59727814 59.62482803 20.58737854 60.39565216 20.57717896 61.18983459 C20.5455317 63.7437124 20.52079383 66.29760882 20.49609375 68.8515625 C20.475527 70.61990855 20.45453061 72.38824965 20.43312073 74.15658569 C20.37787119 78.81559243 20.32847464 83.47464375 20.28027344 88.13372803 C20.22125762 93.72131233 20.15501381 99.30881499 20.08997345 104.89633179 C19.99192767 113.38917142 19.90309647 121.88206291 19.8125 130.375 C-0.3175 130.375 -20.4475 130.375 -41.1875 130.375 C-41.23648438 124.71859375 -41.28546875 119.0621875 -41.3359375 113.234375 C-41.37132028 109.65232578 -41.40727823 106.0703009 -41.4453125 102.48828125 C-41.50563559 96.80195588 -41.56382075 91.11566458 -41.609375 85.42919922 C-41.64623232 80.84498041 -41.69259358 76.26094747 -41.74556351 71.67688751 C-41.76410506 69.9274242 -41.77921392 68.17792104 -41.79084396 66.42839813 C-41.8077105 63.97908977 -41.83674631 61.53020687 -41.86865234 59.08105469 C-41.87081253 58.35672745 -41.87297272 57.63240021 -41.87519836 56.88612366 C-41.93567886 53.25508441 -42.07006336 50.40411968 -44.1875 47.375 C-46.98620027 45.97564987 -49.09248792 46.12234595 -52.1875 46.375 C-55.00225817 48.31621253 -55.57924629 50.10115824 -56.1875 53.375 C-56.30441877 55.8906309 -56.37229735 58.38108455 -56.39282227 60.89746094 C-56.40272186 61.64906998 -56.41262146 62.40067902 -56.42282104 63.17506409 C-56.45434466 65.65313596 -56.47915723 68.13122698 -56.50390625 70.609375 C-56.52448367 72.33002209 -56.54548036 74.0506642 -56.56687927 75.77130127 C-56.62201851 80.29547092 -56.67146367 84.81968557 -56.71972656 89.34393311 C-56.77884358 94.77471326 -56.84502667 100.20541134 -56.91002655 105.63612366 C-57.00793355 113.88236555 -57.09685969 122.1286606 -57.1875 130.375 C-76.9875 130.375 -96.7875 130.375 -117.1875 130.375 C-117.1875 87.145 -117.1875 43.915 -117.1875 -0.625 C-97.3875 -0.625 -77.5875 -0.625 -57.1875 -0.625 C-56.6925 6.8 -56.6925 6.8 -56.1875 14.375 C-55.3625 13.01375 -54.5375 11.6525 -53.6875 10.25 C-41.98737402 -7.12291434 -17.71223017 -9.0297644 0 0 Z " fill="#FBB613" transform="translate(2769.1875,684.625)"/>
<path d="M0 0 C13.76506616 11.60744666 21.38297929 27.76567959 23.71875 45.4921875 C25.36728535 66.07259839 21.71847576 86.3954119 8.84765625 103.02734375 C-3.4813587 117.30185463 -20.56452879 125.03555568 -39.28125 126.4921875 C-60.21527975 127.77265384 -80.85908856 124.51972523 -97.30688477 110.51318359 C-111.48827881 97.6316568 -118.34050417 81.12817069 -119.4140625 62.14355469 C-120.34078472 41.85606078 -117.10415424 22.67621605 -102.96875 7.0546875 C-77.49207868 -19.72870315 -29.22334293 -23.13805255 0 0 Z " fill="#FBB713" transform="translate(2619.28125,693.5078125)"/>
<path d="M0 0 C9.64057932 8.68656366 15.71126967 21.11269668 17 34 C17.02501859 35.74462978 17.03201842 37.48958694 17.0234375 39.234375 C17.02005371 40.12866211 17.01666992 41.02294922 17.01318359 41.94433594 C17.00883301 42.62270508 17.00448242 43.30107422 17 44 C9.25916313 44.2028423 1.51901095 44.34293847 -6.22387695 44.43945312 C-8.857601 44.47968494 -11.49114639 44.53427883 -14.12426758 44.60351562 C-17.91011584 44.70057036 -21.69360359 44.74593201 -25.48046875 44.78125 C-26.65772018 44.82254028 -27.83497162 44.86383057 -29.04789734 44.90637207 C-37.08119761 44.91078183 -37.08119761 44.91078183 -39.77944946 42.23608398 C-41.0949707 40.07617188 -41.0949707 40.07617188 -42.05342102 37.91784668 C-42.9693757 35.6588612 -42.9693757 35.6588612 -46 34 C-49.39033542 33.63148528 -51.53258988 33.80433995 -54.6875 35.125 C-59.24850314 38.82311066 -60.24152086 43.40202122 -61 49 C-61.65620679 58.77855692 -61.8228932 67.31587587 -55.25 75.0625 C-51.80977613 76.49592661 -48.60960881 76.76632568 -45 76 C-40.67937205 72.7825111 -40.08275558 71.4137779 -39 66 C-20.52 66 -2.04 66 17 66 C17 79.98108184 17 79.98108184 14.875 86.125 C14.6490918 86.80312744 14.42318359 87.48125488 14.19042969 88.17993164 C9.4354106 101.83841498 0.86266642 111.54929101 -11.83203125 118.5 C-32.21352314 128.15042279 -56.85317168 128.63634741 -78.20703125 122.00390625 C-95.62991553 115.40467485 -107.36167472 103.43265561 -115.20605469 86.82177734 C-117.01154535 82.67892024 -118.15108121 78.42700626 -119 74 C-119.18175781 73.15566406 -119.36351563 72.31132813 -119.55078125 71.44140625 C-121.35618676 57.61043011 -121.20904752 42.35915082 -117 29 C-116.74476563 28.14148438 -116.48953125 27.28296875 -116.2265625 26.3984375 C-111.0766608 11.51569406 -99.93198112 -0.33322181 -86.0625 -7.375 C-59.56874928 -20.23153245 -23.63431523 -18.27966569 0 0 Z " fill="#FBB713" transform="translate(2476,694)"/>
<path d="M0 0 C11.1375 -0.061875 22.275 -0.12375 33.75 -0.1875 C37.24303711 -0.21481201 40.73607422 -0.24212402 44.33496094 -0.27026367 C48.66064453 -0.28381348 48.66064453 -0.28381348 50.69732666 -0.28633118 C52.09432864 -0.29088321 53.49132021 -0.30131812 54.88824463 -0.31672668 C71.23626901 -0.48774984 87.82349807 2.19672418 100 14 C107.02233852 22.24894787 109.59248322 31.30900247 109.2890625 42.0390625 C108.43047325 50.83380107 105.41235068 58.00087202 98.875 64.0625 C85.64268559 74.7265171 69.47715801 75.47152916 53.22265625 75.29296875 C51.84794483 75.28853994 50.47322828 75.28549052 49.09851074 75.28381348 C44.08642837 75.26829273 39.07445536 75.22641109 34.0625 75.1875 C22.821875 75.125625 11.58125 75.06375 0 75 C0 50.25 0 25.5 0 0 Z " fill="#EC1E26" transform="translate(2625,328)"/>
<path d="M0 0 C0.66 0 1.32 0 2 0 C3.64392184 5.45893034 5.2817434 10.91966689 6.91650391 16.38134766 C7.69932829 18.9958188 8.48288052 21.61006552 9.26708984 24.22412109 C10.68134695 28.9401005 12.09204127 33.65713644 13.5 38.375 C13.86070587 39.58364716 13.86070587 39.58364716 14.22869873 40.81671143 C17.33739481 51.24795119 20.34026952 61.69643732 23.14453125 72.21435547 C24.55084106 77.46009788 26.15897837 82.58466927 27.9453125 87.71484375 C29.71330895 93.22182527 31.14317236 98.82225907 32.63525391 104.40917969 C34.61055772 111.73744423 36.81289048 118.97220518 39.17138672 126.18579102 C41 131.80979002 41 131.80979002 41 134 C15.26 134 -10.48 134 -37 134 C-34.74829932 122.7414966 -34.74829932 122.7414966 -33.30078125 117.5234375 C-32.82282104 115.79347534 -32.82282104 115.79347534 -32.33520508 114.02856445 C-31.9977124 112.82288818 -31.66021973 111.61721191 -31.3125 110.375 C-30.96018311 109.1068042 -30.60786621 107.8386084 -30.24487305 106.53198242 C-27.71304669 97.43983198 -25.09403452 88.37386968 -22.43261719 79.31884766 C-20.55945139 72.94259128 -18.74630156 66.55332587 -16.98364258 60.14575195 C-15.03590969 53.08374585 -13.01799614 46.04220408 -11 39 C-8.2946016 29.55669978 -5.61886886 20.10652821 -3.0078125 10.63671875 C-2.02369 7.08548599 -1.01719722 3.54186238 0 0 Z " fill="#EC1E26" transform="translate(1472,356)"/>
<path d="M0 0 C2 1 2 1 2.67578125 2.90625 C2.88589844 3.7621875 3.09601562 4.618125 3.3125 5.5 C4.57408365 10.40686303 5.93379671 15.26875927 7.375 20.125 C7.75783629 21.4192638 8.14064762 22.71353498 8.5234375 24.0078125 C8.74475342 24.75474365 8.96606934 25.5016748 9.1940918 26.27124023 C10.00459668 29.01556411 10.80978635 31.76142532 11.61488342 34.50733948 C13.83314616 42.06795174 16.0785026 49.62013071 18.33984375 57.16796875 C18.93427332 59.15428834 19.52867399 61.14061658 20.12304688 63.12695312 C21.02756536 66.14957069 21.93282967 69.17195369 22.84057617 72.19360352 C26.36702072 83.93661601 29.79872435 95.6941783 32.97337341 107.5377655 C34.70590159 113.99570193 36.55993169 120.41026295 38.5249176 126.80134583 C39.3867921 129.65409156 40 131.9994152 40 135 C14.59 135 -10.82 135 -37 135 C-35.87502681 126.00021448 -35.87502681 126.00021448 -34.58203125 121.48828125 C-34.30037109 120.49441406 -34.01871094 119.50054687 -33.72851562 118.4765625 C-33.42623047 117.43242187 -33.12394531 116.38828125 -32.8125 115.3125 C-32.49861328 114.21035156 -32.18472656 113.10820312 -31.86132812 111.97265625 C-30.91301231 108.64684565 -29.95709619 105.3232928 -29 102 C-28.48253864 100.19155904 -27.96557295 98.38297614 -27.44921875 96.57421875 C-26.72353062 94.03236734 -25.99732591 91.49067638 -25.26855469 88.94970703 C-23.33544915 82.20421292 -21.4461205 75.44695606 -19.5625 68.6875 C-16.94142591 59.28746093 -14.23837625 49.91393633 -11.49121094 40.55004883 C-9.30439348 33.08255016 -7.19952059 25.59523144 -5.1328125 18.09375 C-3.46641699 12.04982846 -1.73384372 6.02486476 0 0 Z " fill="#EC1E26" transform="translate(2282,355)"/>
<path d="M0 0 C6.30929331 5.26551066 11.47886082 10.71829398 12.60546875 19.12158203 C13.54439261 29.91685914 12.65562872 38.42753441 5.72265625 47.09375 C-0.98969407 54.43730758 -9.98915289 57.9965317 -19.85546875 58.51953125 C-28.84903364 58.32187048 -37.47264359 54.47512022 -43.91015625 48.19921875 C-50.43420302 40.34136686 -52.90594878 32.09621761 -52.24609375 21.9921875 C-50.92717807 13.07168346 -46.83787682 6.0369305 -39.75 0.48046875 C-27.38296794 -7.82609312 -12.40800065 -8.91995362 0 0 Z " fill="#FBB613" transform="translate(2339.66796875,760.91796875)"/>
<path d="M0 0 C4.29961256 1.67789759 6.09333618 4.92214288 8.19140625 8.93359375 C9.45448308 13.01643419 9.41106658 16.87542129 9.39453125 21.125 C9.41064453 21.94162109 9.42675781 22.75824219 9.44335938 23.59960938 C9.44893043 30.59128906 8.04495241 35.95734195 4.01953125 41.8125 C0.33931439 44.31817957 -2.15274981 44.58931167 -6.54296875 44.3671875 C-9.17960702 43.75139369 -10.15893317 43.14579682 -11.91796875 41.125 C-15.71813439 34.83097565 -16.2315032 30.16983795 -16.16796875 22.9375 C-16.17570312 22.06480469 -16.1834375 21.19210937 -16.19140625 20.29296875 C-16.17372217 14.41301118 -15.97726889 8.77880491 -12.5078125 3.78125 C-8.40661856 0.13574428 -5.47845766 -1.04529346 0 0 Z " fill="#EC1D23" transform="translate(2574.91796875,727.1875)"/>
</svg>
