<?xml version="1.0" encoding="UTF-8"?>
<svg version="1.1" xmlns="http://www.w3.org/2000/svg" width="300" height="124">
<path d="M0 0 C99 0 198 0 300 0 C300 40.92 300 81.84 300 124 C201 124 102 124 0 124 C0 83.08 0 42.16 0 0 Z " fill="#FDEC00" transform="translate(0,0)"/>
<path d="M0 0 C0.66 0 1.32 0 2 0 C7.48316025 10.89689947 12.95988799 21.79700473 18.42835999 32.70128345 C20.96762023 37.76412862 23.50910741 42.82583016 26.05566406 47.88500977 C28.51179783 52.76475116 30.96210729 57.64737565 33.40835571 62.5320797 C34.34404386 64.3979004 35.2818484 66.26266127 36.22177124 68.12635231 C37.53492739 70.73098092 38.84060033 73.33923007 40.14453125 75.94848633 C40.53726227 76.72316254 40.92999329 77.49783875 41.33462524 78.29598999 C44 83.65784352 44 83.65784352 44 87 C38.39 87 32.78 87 27 87 C25.02 83.349375 25.02 83.349375 23 79.625 C22.58234375 78.86010254 22.1646875 78.09520508 21.734375 77.30712891 C19 72.22222222 19 72.22222222 19 70 C11.41 70 3.82 70 -4 70 C-1.36 64.72 1.28 59.44 4 54 C5.98 54 7.96 54 10 54 C9.44425293 52.94087402 8.88850586 51.88174805 8.31591797 50.79052734 C6.25686288 46.8535914 4.22442824 42.90341806 2.19970703 38.94873047 C1.32018233 37.23993035 0.43350685 35.53479092 -0.46044922 33.83349609 C-1.74529279 31.38529028 -3.0037254 28.92501007 -4.2578125 26.4609375 C-4.8638884 25.32620499 -4.8638884 25.32620499 -5.48220825 24.16854858 C-7.32174601 20.49332696 -8.16266094 18.80573907 -7.328125 14.671875 C-6.88984375 13.79015625 -6.4515625 12.9084375 -6 12 C-5.50242188 10.94039062 -5.00484375 9.88078125 -4.4921875 8.7890625 C-3.95851562 7.74492187 -3.42484375 6.70078125 -2.875 5.625 C-2.33617187 4.56539062 -1.79734375 3.50578125 -1.2421875 2.4140625 C-0.83226562 1.61742188 -0.42234375 0.82078125 0 0 Z " fill="#0E559E" transform="translate(237,17)"/>
<path d="M0 0 C5.28 0 10.56 0 16 0 C16 27.06 16 54.12 16 82 C10.72 82 5.44 82 0 82 C0 54.94 0 27.88 0 0 Z " fill="#13589A" transform="translate(146,22)"/>
<path d="M0 0 C4.95 0 9.9 0 15 0 C15 26.73 15 53.46 15 81 C10.05 81 5.1 81 0 81 C0 54.27 0 27.54 0 0 Z " fill="#0B53A0" transform="translate(68,22)"/>
<path d="M0 0 C11.45775438 5.42735734 22.86939568 10.86313678 34.1875 16.5625 C35.44977179 17.19615881 36.71214162 17.82962235 37.97460938 18.46289062 C40.98403104 19.97336663 43.99248814 21.48572603 47 23 C44.81473026 25.39589718 42.73469937 26.81610439 39.83569336 28.25244141 C39.00150375 28.66942291 38.16731415 29.08640442 37.30784607 29.51602173 C36.4109053 29.95675018 35.51396454 30.39747864 34.58984375 30.8515625 C33.66659805 31.31106293 32.74335236 31.77056335 31.79212952 32.24398804 C28.8433563 33.70998439 25.89052169 35.16758352 22.9375 36.625 C20.94438761 37.61403166 18.9515457 38.60360861 16.95898438 39.59375 C12.58007711 41.76844842 8.19859975 43.93786544 3.81480408 46.10269165 C2.54172605 46.73214998 1.27025839 47.36487081 0 48 C0 32.16 0 16.32 0 0 Z " fill="#02A0E2" transform="translate(0,39)"/>
<path d="M0 0 C9.78855269 -0.63838387 16.95991186 0.02568633 25 6 C30.89379396 12.54302427 33.45185901 18.24427307 33.3359375 27.01953125 C32.43376796 35.0236633 28.07650494 40.58099585 22.0625 45.625 C17.19172592 48.87218272 12.92949099 49.26674658 7.1875 49.125 C4.815625 49.08375 2.44375 49.0425 0 49 C0 43.72 0 38.44 0 33 C1.7325 32.896875 3.465 32.79375 5.25 32.6875 C9.4134883 32.43967332 12.01920739 32.0506004 15 29 C15.59086 27.06255801 15.59086 27.06255801 15.4375 25 C15.43556641 23.9790625 15.43556641 23.9790625 15.43359375 22.9375 C14.85464779 20.35049821 14.18058416 19.51633058 12 18 C9.03756274 17.42052719 9.03756274 17.42052719 5.8125 17.3125 C3.894375 17.209375 1.97625 17.10625 0 17 C0 11.39 0 5.78 0 0 Z " fill="#10579C" transform="translate(172,22)"/>
<path d="M0 0 C0.66 0 1.32 0 2 0 C3.37448233 2.53241602 4.72421399 5.0735432 6.0625 7.625 C6.45244141 8.33785156 6.84238281 9.05070312 7.24414062 9.78515625 C7.60830078 10.48769531 7.97246094 11.19023438 8.34765625 11.9140625 C8.68804932 12.5529541 9.02844238 13.1918457 9.37915039 13.85009766 C11.05784905 19.66316111 7.80338098 24.94348968 5.21875 29.98828125 C4.84520386 30.73208542 4.47165771 31.47588959 4.08679199 32.24223328 C3.3003555 33.80472653 2.5101222 35.36531394 1.71630859 36.92407227 C0.49694371 39.31850155 -0.711491 41.71819598 -1.91796875 44.11914062 C-2.68427355 45.63833488 -3.45117944 47.15722612 -4.21875 48.67578125 C-4.58230591 49.39550613 -4.94586182 50.11523102 -5.32043457 50.85676575 C-7.88163693 55.88163693 -7.88163693 55.88163693 -9 57 C-10.34267413 57.08631874 -11.68974322 57.10706473 -13.03515625 57.09765625 C-13.84404297 57.09443359 -14.65292969 57.09121094 -15.48632812 57.08789062 C-16.33646484 57.07951172 -17.18660156 57.07113281 -18.0625 57.0625 C-18.91650391 57.05798828 -19.77050781 57.05347656 -20.65039062 57.04882812 C-22.76695663 57.03700373 -24.88348685 57.01906769 -27 57 C-25.64706521 52.62964299 -23.94508819 48.66713518 -21.875 44.58984375 C-21.57155167 43.9885112 -21.26810333 43.38717865 -20.95545959 42.7676239 C-20.30783359 41.48472539 -19.65850404 40.20268563 -19.00759888 38.92144775 C-17.30716034 35.57330863 -15.6200638 32.21847303 -13.93359375 28.86328125 C-13.4298246 27.86164948 -13.4298246 27.86164948 -12.9158783 26.83978271 C-8.46228696 17.96419493 -4.21709639 8.98985725 0 0 Z " fill="#10569D" transform="translate(222,47)"/>
<path d="M0 0 C10.56 0 21.12 0 32 0 C32 5.61 32 11.22 32 17 C21.44 17 10.88 17 0 17 C0 11.39 0 5.78 0 0 Z " fill="#0F569C" transform="translate(94,87)"/>
<path d="M0 0 C10.56 0 21.12 0 32 0 C32 5.61 32 11.22 32 17 C21.44 17 10.88 17 0 17 C0 11.39 0 5.78 0 0 Z " fill="#13589B" transform="translate(94,22)"/>
<path d="M0 0 C10.23 0 20.46 0 31 0 C31 5.28 31 10.56 31 16 C20.77 16 10.54 16 0 16 C0 10.72 0 5.44 0 0 Z " fill="#0952A1" transform="translate(94,55)"/>
</svg>
