<?xml version="1.0" encoding="UTF-8"?>
<svg version="1.1" xmlns="http://www.w3.org/2000/svg" width="318" height="123">
<path d="M0 0 C6.84030794 6.44321142 11.06680822 13.29843119 11.625 22.8125 C11.31627682 31.15867156 7.57070163 38.53563103 2 44.6875 C-17.25094274 62.00071109 -44.30721726 69.3079258 -69.125 73.8125 C-70.19459961 74.00730957 -71.26419922 74.20211914 -72.36621094 74.40283203 C-90.55072962 77.48794843 -108.70943739 78.38095307 -127.125 78.3125 C-128.15014709 78.31067719 -129.17529419 78.30885437 -130.23150635 78.30697632 C-146.33413232 78.25893167 -162.08594725 77.65713683 -178 75 C-179.03592285 74.83371094 -180.0718457 74.66742188 -181.13916016 74.49609375 C-208.62432427 69.95656519 -242.75832873 62.01028493 -260 38 C-264.17956849 31.38958455 -265.25466353 24.71135509 -264 17 C-258.78199188 1.63163301 -246.83925325 -6.15519951 -232.8984375 -13.0703125 C-170.9148994 -42.61223552 -54.66064382 -46.70834279 0 0 Z " fill="#FAFA04" transform="translate(286,39)"/>
<path d="M0 0 C6.84030794 6.44321142 11.06680822 13.29843119 11.625 22.8125 C11.31627682 31.15867156 7.57070163 38.53563103 2 44.6875 C-17.25094274 62.00071109 -44.30721726 69.3079258 -69.125 73.8125 C-70.19459961 74.00730957 -71.26419922 74.20211914 -72.36621094 74.40283203 C-90.55072962 77.48794843 -108.70943739 78.38095307 -127.125 78.3125 C-128.15014709 78.31067719 -129.17529419 78.30885437 -130.23150635 78.30697632 C-146.33413232 78.25893167 -162.08594725 77.65713683 -178 75 C-179.03592285 74.83371094 -180.0718457 74.66742188 -181.13916016 74.49609375 C-208.62432427 69.95656519 -242.75832873 62.01028493 -260 38 C-264.17956849 31.38958455 -265.25466353 24.71135509 -264 17 C-258.78199188 1.63163301 -246.83925325 -6.15519951 -232.8984375 -13.0703125 C-170.9148994 -42.61223552 -54.66064382 -46.70834279 0 0 Z M-251.83203125 6.8125 C-256.06234539 11.42364534 -258.62060708 16.07325461 -259.4375 22.375 C-258.27267536 32.02640419 -252.83651124 38.85669548 -245.62890625 45.03125 C-232.96164485 54.8187328 -218.21623802 59.69834941 -203 64 C-202.3390332 64.19190918 -201.67806641 64.38381836 -200.99707031 64.58154297 C-196.0405108 65.99241321 -191.06074447 67.05283751 -186 68 C-185.04496582 68.18336914 -184.08993164 68.36673828 -183.10595703 68.55566406 C-146.84595314 75.16873683 -107.18997472 74.83238369 -71 68 C-69.53958252 67.75598166 -68.07870089 67.51471011 -66.6171875 67.27734375 C-42.78734813 63.05273316 -15.90691374 55.2977933 1 37 C4.73686268 31.32075751 6.55687749 25.7939054 6 19 C2.13532516 6.9136602 -8.31151316 -0.32362846 -19 -6 C-23.56889162 -8.28163591 -28.21965509 -10.2143503 -33 -12 C-33.72106934 -12.2769873 -34.44213867 -12.55397461 -35.18505859 -12.83935547 C-47.72798372 -17.55907525 -60.4458697 -20.20603191 -73.625 -22.375 C-74.39708801 -22.50237549 -75.16917603 -22.62975098 -75.96466064 -22.76098633 C-92.11068458 -25.38995792 -107.85003587 -26.20910246 -124.1875 -26.1875 C-125.16931244 -26.18623108 -126.15112488 -26.18496216 -127.16268921 -26.18365479 C-167.94779013 -26.08312623 -220.91617177 -23.77376609 -251.83203125 6.8125 Z " fill="#0606F6" transform="translate(286,39)"/>
<path d="M0 0 C4.29 0 8.58 0 13 0 C16 6 19 12 22 18 C23.8461553 12.06592939 24.94146945 6.12435531 26 0 C30.29 0 34.58 0 39 0 C37.82247453 10.00896646 36.4482082 19.97310909 34.9375 29.9375 C34.7631543 31.10522949 34.58880859 32.27295898 34.40917969 33.47607422 C34.24192383 34.56549316 34.07466797 35.65491211 33.90234375 36.77734375 C33.75273193 37.75952881 33.60312012 38.74171387 33.44897461 39.75366211 C33 42 33 42 32 43 C27.66469082 43.14393457 23.33842269 43.04212061 19 43 C14.545 33.595 14.545 33.595 10 24 C8.37859971 31.27156423 8.37859971 31.27156423 6.875 38.5625 C6.58625 40.026875 6.2975 41.49125 6 43 C1.71 43 -2.58 43 -7 43 C-6.37274813 34.73880779 -5.22954881 26.62622663 -3.84326172 18.46264648 C-3.49537925 16.41023888 -3.15551554 14.3566079 -2.81640625 12.30273438 C-1.13021807 2.26043614 -1.13021807 2.26043614 0 0 Z " fill="#0404FA" transform="translate(75,38)"/>
<path d="M0 0 C11.22 0 22.44 0 34 0 C34 7 34 7 33 10 C26.07 10 19.14 10 12 10 C12 11.65 12 13.3 12 15 C17.94 15 23.88 15 30 15 C30 22 30 22 29 25 C22.73 25.33 16.46 25.66 10 26 C9.67 27.98 9.34 29.96 9 32 C15.93 32 22.86 32 30 32 C29.34 35.63 28.68 39.26 28 43 C16.78 43 5.56 43 -6 43 C-7.63305947 39.73388106 -6.41098428 36.33734282 -5.8203125 32.8515625 C-5.68809296 32.04262543 -5.55587341 31.23368835 -5.41964722 30.40023804 C-5.13839014 28.6865787 -4.85405245 26.9734226 -4.56689453 25.26074219 C-4.12811527 22.64358145 -3.69795764 20.02512339 -3.26953125 17.40625 C-2.9952955 15.74210439 -2.72057182 14.07803911 -2.4453125 12.4140625 C-2.31609406 11.63165192 -2.18687561 10.84924133 -2.05374146 10.04312134 C-1.48369174 6.64894819 -0.83544239 3.34176957 0 0 Z " fill="#0303FB" transform="translate(161,38)"/>
<path d="M0 0 C5.28 0 10.56 0 16 0 C17.00311776 4.99767598 18.00205519 9.9958327 18.99072266 14.99633789 C19.32784827 16.69505666 19.66733299 18.39330911 20.00927734 20.09106445 C20.50207581 22.53997111 20.98619624 24.99046293 21.46875 27.44140625 C21.62186646 28.19273331 21.77498291 28.94406036 21.93273926 29.71815491 C22.07288452 30.43837326 22.21302979 31.15859161 22.35742188 31.90063477 C22.48177612 32.52462662 22.60613037 33.14861847 22.73425293 33.79151917 C23.10111326 36.84029783 23 39.92922846 23 43 C18.38 43 13.76 43 9 43 C9 40.69 9 38.38 9 36 C4.38 36 -0.24 36 -5 36 C-5.66 38.31 -6.32 40.62 -7 43 C-11.62 43 -16.24 43 -21 43 C-20.14356585 38.71782923 -19.28443562 36.25449465 -17.3046875 32.5 C-16.48230591 30.92980103 -16.48230591 30.92980103 -15.64331055 29.32788086 C-14.76799683 27.68057983 -14.76799683 27.68057983 -13.875 26 C-13.2869458 24.88181885 -12.6988916 23.7636377 -12.09301758 22.61157227 C-8.10905602 15.04891894 -4.08647757 7.50771461 0 0 Z " fill="#0404FA" transform="translate(255,38)"/>
<path d="M0 0 C1.29550781 -0.03738281 2.59101563 -0.07476562 3.92578125 -0.11328125 C8.27508598 0.37900766 10.32989299 1.55995659 13.6875 4.3125 C16.1169516 7.9566774 15.84929575 10.02491272 15.6875 14.3125 C11.3975 14.3125 7.1075 14.3125 2.6875 14.3125 C2.0275 12.9925 1.3675 11.6725 0.6875 10.3125 C-1.72869823 10.06219023 -1.72869823 10.06219023 -4.3125 10.3125 C-5.3025 11.7975 -5.3025 11.7975 -6.3125 13.3125 C-5.52746094 13.48265625 -4.74242187 13.6528125 -3.93359375 13.828125 C10.697519 17.20315469 10.697519 17.20315469 13.875 22.16796875 C15.30414426 25.94008509 14.61201987 29.46033387 13.6875 33.3125 C10.7698759 38.83514561 7.33156855 42.27561037 1.5 44.5625 C-5.73755703 45.98628171 -12.12172761 46.35226289 -18.68359375 42.57421875 C-21.36058173 40.5006765 -22.30907213 38.51092635 -23.3125 35.3125 C-23.5 31.4375 -23.5 31.4375 -23.3125 28.3125 C-19.0225 28.3125 -14.7325 28.3125 -10.3125 28.3125 C-9.6525 29.9625 -8.9925 31.6125 -8.3125 33.3125 C-7.25939723 34.58253323 -7.25939723 34.58253323 -4.875 34.5 C-2.14515325 34.58089983 -2.14515325 34.58089983 -0.3125 32.3125 C-0.3125 31.3225 -0.3125 30.3325 -0.3125 29.3125 C-1.10914063 29.08175781 -1.90578125 28.85101563 -2.7265625 28.61328125 C-8.98738518 26.68628838 -13.71090725 25.03846012 -18.3125 20.3125 C-19.8672669 17.20296621 -19.59894437 14.74983239 -19.3125 11.3125 C-14.77602798 2.7436084 -9.37473198 0.17618191 0 0 Z " fill="#0606F8" transform="translate(219.3125,36.6875)"/>
<path d="M0 0 C10.56 0 21.12 0 32 0 C31.67 3.3 31.34 6.6 31 10 C25.06 10.33 19.12 10.66 13 11 C12.67 12.65 12.34 14.3 12 16 C16.95 16 21.9 16 27 16 C26.67 19.3 26.34 22.6 26 26 C20.72 26 15.44 26 10 26 C9.34 31.61 8.68 37.22 8 43 C3.38 43 -1.24 43 -6 43 C-5.34995113 33.4659499 -4.00949148 24.1668674 -2.4375 14.75 C-1.633125 9.8825 -0.82875 5.015 0 0 Z " fill="#0404FA" transform="translate(122,38)"/>
<path d="M0 0 C4.62 0 9.24 0 14 0 C11.92083274 14.38090687 9.5435474 28.69415979 7 43 C2.38 43 -2.24 43 -7 43 C-5.54517003 28.56655529 -3.52195622 14.08782486 0 0 Z " fill="#0606F8" transform="translate(52,38)"/>
<path d="M0 0 C0.5703125 1.890625 0.5703125 1.890625 1 4 C-0.125 5.75 -0.125 5.75 -2 7 C-4.92473469 7.4387102 -6.35741636 7.44316113 -8.8125 5.75 C-10 4 -10 4 -10 0 C-11.98 0 -13.96 0 -16 0 C-16 -0.33 -16 -0.66 -16 -1 C-10.31150252 -2.49697302 -5.58190932 -1.3348044 0 0 Z " fill="#E9E914" transform="translate(219,65)"/>
<path d="M0 0 C2.375 -0.125 2.375 -0.125 5 0 C7 2 7 2 7 5 C9.64 5 12.28 5 15 5 C15 5.33 15 5.66 15 6 C8.43592388 7.31281522 4.16645379 6.52653315 -2 4 C-1.34 2.68 -0.68 1.36 0 0 Z " fill="#D5D528" transform="translate(215,46)"/>
<path d="M0 0 C0.33 0 0.66 0 1 0 C1.33 3.3 1.66 6.6 2 10 C0.02 10 -1.96 10 -4 10 C-3.52449439 8.51965236 -3.04448784 7.04074979 -2.5625 5.5625 C-2.29566406 4.73878906 -2.02882813 3.91507813 -1.75390625 3.06640625 C-1 1 -1 1 0 0 Z " fill="#E5E51A" transform="translate(260,53)"/>
</svg>
