<svg version="1" xmlns="http://www.w3.org/2000/svg" width="326.242" height="82.354" viewBox="0 0 326.242 82.354"><g fill="#FBE900"><path d="M74.056 15.905H89.66l13.988 18.717v-18.37h16.192v40.542h-15.5L90.523 37.847v18.778H74.097l-.04-40.72"/><path fill-rule="evenodd" clip-rule="evenodd" d="M126.41 35.914c0-11.53 11.334-20.874 25.32-20.874 13.98 0 25.32 9.344 25.32 20.874 0 11.532-11.34 20.88-25.32 20.88-13.986 0-25.32-9.348-25.32-20.88zm17.48-.26c0-4.08 3.64-7.392 8.135-7.392 4.488 0 8.13 3.313 8.13 7.392 0 4.085-3.642 7.394-8.13 7.394-4.494 0-8.135-3.31-8.135-7.394z"/><path d="M175.475 15.905h18.183l7.266 20.444 6.734-20.445h17.938l-16.728 40.89h-14.866l-18.527-40.89M226.994 15.905h31.058v11.147h-14.34v3.75h13.004v10.514H243.71v4.79h14.69v10.688h-31.424l.018-40.89M260.668 15.905h18.463l5.053 7.854 8.07-13.573h18.873l-16.602 24.435 20.375 27.49h-19.167l-11.2-16.18-6.104 10.862h-19.326l15.733-21.83-14.17-19.06M48.1 36.11l7.397-7.193s-10.832-9.794 6.59-13.58c5.228 5.063 8.918 12.016 8.918 19.705 0 2.38-.292 4.273-.876 6.48l-11.48-9.63-6.914 6.87L65.42 51.34c-5.353 6.926-14.034 11.748-23.725 11.748-9.027 0-17.093-3.908-22.47-10.053l5.523-6.424 2.94 2.11 1.14-1.297-7.397-5.736-1.466 1.302 2.28 2.318-5.058 5.035c-2.96-4.382-4.782-9.696-4.782-15.303 0-15.49 13.112-28.044 29.29-28.044 6.53 0 12.906 2.12 17.77 5.57 0 0-17.463.816-21.055 8.505 0 0-4.146 1.188-5.29 3.298 0 0 2.62 5.03-1.132 7.2 0 0-4.625.862-6.264-.654l-3.26 3.74L33.94 44.826l3.478-3.463s-2.11-3.946 1.643-7.2c.004 0 2.778-2.272 9.04 1.948z"/></g><g fill-rule="evenodd" clip-rule="evenodd" fill="#FFF"><path d="M151.203 70.288c-.08.088-.16.18-.234.27-1.16 1.458-2.314 2.913-3.47 4.373-.09.116-.172.24-.29.316-.126-.013-.14-.11-.173-.184l-.88-1.914c-.395-.862-.79-1.724-1.183-2.587-.04-.084-.065-.187-.208-.214-.14.647-.227 1.29-.335 1.93-.108.63-.213 1.262-.316 1.892-.11.646-.214 1.288-.324 1.932-.107.632-.214 1.262-.325 1.906-.068.012-.124.037-.184.037-.703.003-1.403.003-2.106.002-.045 0-.09-.018-.14-.027-.005-.047-.02-.086-.016-.12.657-3.958 1.32-7.915 1.984-11.89.093-.018.175-.05.258-.05.737-.004 1.48.003 2.217-.004.187 0 .288.07.36.243.39.946.79 1.888 1.19 2.83.244.578.49 1.157.736 1.734.033.075.085.14.126.21.146-.03.19-.137.256-.22.56-.736 1.12-1.477 1.677-2.21.596-.784 1.197-1.568 1.784-2.358.123-.17.258-.233.46-.23.705.008 1.41 0 2.11.005.083 0 .167.012.277.022 0 .083.01.15 0 .22l-.346 2.115c-.14.824-.282 1.65-.42 2.474-.148.9-.3 1.798-.448 2.694l-.69 4.12c-.023.134-.05.263-.075.403-.28.074-.548.026-.818.036-.272.008-.543.008-.813 0-.27-.01-.538.037-.83-.038.202-1.3.43-2.582.642-3.866.213-1.275.437-2.545.636-3.824-.032-.007-.06-.017-.09-.028zM184.967 68.838c0 .063.008.11 0 .156l-1.963 11.773c-.278.07-.548.027-.813.034-.27.01-.54.006-.812.003-.267-.002-.538.015-.82-.017.02-.472.13-.9.196-1.335.065-.425.143-.85.213-1.277.068-.43.15-.86.206-1.3-.153-.013-.2.088-.27.146-.267.217-.524.447-.805.647-.518.368-1.102.534-1.735.54-.382.003-.76-.01-1.13-.117-.954-.28-1.597-.892-1.987-1.79-.29-.674-.378-1.38-.33-2.1.055-.852.228-1.684.58-2.466.416-.928 1.013-1.715 1.844-2.313.896-.642 1.9-.895 3.004-.77.63.073 1.14.366 1.558.828.13.133.243.275.385.437.04-.076.08-.12.09-.172.054-.29.102-.58.154-.885.08-.016.147-.05.218-.05h2.032c.054.003.115.017.187.03zm-5.756 7.164c.45.022.858-.13 1.237-.38.337-.22.6-.508.82-.842.338-.513.515-1.082.564-1.697.04-.424-.02-.84-.187-1.226-.277-.653-.783-.993-1.488-1.024-.502-.024-.947.132-1.36.405-1.05.7-1.576 2.23-1.29 3.392.236.938.986 1.415 1.706 1.372zM203.088 74.316c-.153.006-.296.013-.445.013h-5.173c-.146 0-.294-.017-.457.045-.004.075-.02.145-.013.212.076.914.747 1.53 1.655 1.57.745.035 1.414-.16 2.017-.586l.462-.32c.253.18.425.425.622.64.188.21.397.4.567.654-.118.123-.224.24-.34.346-.732.65-1.56 1.127-2.533 1.287-.938.156-1.87.134-2.758-.26-1.135-.503-1.785-1.4-2.024-2.6-.186-.953-.072-1.892.238-2.806.43-1.27 1.174-2.322 2.3-3.077 1.147-.768 2.397-.994 3.737-.68.907.21 1.555.77 1.98 1.59.276.533.406 1.103.44 1.703.036.655-.014 1.305-.155 1.944-.015.06-.027.12-.048.178-.01.034-.03.07-.072.148zm-2.092-1.656c.058-.472-.034-.893-.263-1.29-.202-.354-.518-.564-.91-.624-.636-.096-1.22.048-1.71.493-.386.36-.643.806-.826 1.294-.016.037 0 .09.006.127.334.056 3.357.056 3.703 0zM275.27 74.316c-.155.006-.305.013-.45.013h-5.174c-.144 0-.295-.02-.455.05-.004.07-.018.142-.012.212.025.233.076.46.186.67.297.564.78.838 1.4.89.766.067 1.46-.134 2.088-.583.146-.106.3-.21.445-.308.227.155.978.976 1.185 1.284-.244.308-.552.55-.872.778-.588.422-1.23.726-1.95.844-1 .172-1.988.14-2.922-.313-.853-.41-1.418-1.08-1.74-1.966-.237-.644-.278-1.303-.218-1.97.11-1.15.51-2.202 1.197-3.14.6-.807 1.35-1.426 2.282-1.816.722-.304 1.472-.387 2.242-.32.186.017.368.05.545.092 1.13.26 1.848.982 2.244 2.046.155.418.23.854.25 1.3.02.658-.01 1.308-.167 1.944-.024.092-.063.182-.102.29zm-5.825-1.622c.205.004.362.008.52.008.934 0 1.873.003 2.803 0 .13 0 .27.026.417-.068.053-.486-.056-.94-.332-1.354-.212-.316-.52-.492-.886-.542-.688-.088-1.288.098-1.78.604-.312.325-.536.704-.697 1.12-.022.053-.026.116-.045.232zM290.527 74.316c-.16.006-.308.013-.452.013-1.738 0-3.475 0-5.21.003-.145 0-.3-.044-.426.067-.03 1.08.744 1.72 1.644 1.758.745.034 1.41-.16 2.016-.587.148-.105.3-.208.468-.322.244.183.416.424.612.64.185.208.402.395.56.642-.247.33-.558.567-.875.795-.59.424-1.232.726-1.948.844-1.005.167-1.988.14-2.926-.314-.843-.403-1.4-1.06-1.723-1.932-.22-.602-.294-1.222-.24-1.854.118-1.46.65-2.75 1.654-3.824.723-.77 1.59-1.316 2.644-1.527.746-.15 1.494-.144 2.226.082.79.244 1.38.75 1.77 1.474.29.54.434 1.12.463 1.73.034.684.002 1.356-.156 2.02-.025.092-.06.182-.1.29zm-5.81-1.655c.06.018.107.04.154.04 1.146 0 2.286-.002 3.428-.006.036 0 .067-.025.117-.044.08-.467-.03-.894-.262-1.3-.207-.352-.53-.555-.92-.61-.668-.092-1.268.078-1.756.564-.34.335-.575.736-.74 1.176-.02.054-.013.116-.02.18zM253.858 74.318c-.16.006-.305.01-.453.01-1.726 0-3.45 0-5.172.003-.147 0-.297-.02-.445.043-.064.136-.01.266.01.395.132.813.736 1.32 1.55 1.385.764.063 1.46-.135 2.087-.58.15-.107.3-.21.46-.32.255.177.42.423.617.637.19.206.404.396.564.64-.244.324-.543.555-.852.777-.594.434-1.25.74-1.977.864-.987.167-1.965.14-2.892-.3-.934-.437-1.527-1.173-1.826-2.158-.18-.596-.217-1.208-.152-1.828.1-.957.384-1.854.896-2.675.63-1.01 1.465-1.78 2.572-2.245.73-.307 1.495-.393 2.277-.317.41.043.805.13 1.17.313.718.355 1.21.916 1.518 1.65.23.557.306 1.137.315 1.73.012.567-.04 1.13-.17 1.687-.02.094-.056.18-.097.29zm-5.815-1.673c.112.074.226.056.338.056.393.005.785.002 1.177.002.63 0 1.254.003 1.88 0 .106 0 .226.024.31-.075.055-.483-.016-.848-.238-1.238-.207-.37-.53-.587-.94-.647-.683-.1-1.286.088-1.783.586-.324.326-.55.718-.72 1.146-.02.052-.015.114-.024.17zM156.123 71.32c-.14-.337-.313-1.578-.266-1.934.17-.068.35-.143.533-.21 1.104-.412 2.245-.552 3.415-.483.44.023.878.097 1.295.27.858.354 1.347.99 1.516 1.9.108.603.066 1.2-.032 1.798-.278 1.666-.56 3.332-.84 4.994-.02.118-.05.236-.078.347-.286.058-1.89.065-2.324.017-.096-.27.113-.545.03-.845-.054.024-.113.038-.153.07-.31.25-.63.476-.992.644-.44.203-.902.318-1.39.32-.396.005-.79.017-1.175-.092-.527-.147-.976-.407-1.29-.865-.212-.313-.35-.66-.37-1.034-.05-.958.19-1.83.825-2.57.52-.603 1.188-.95 1.953-1.11 1.06-.22 2.106-.2 3.136.145.067.022.138.035.198.05.035-.028.063-.042.07-.062.105-.342.094-.683-.04-1.012-.176-.417-.53-.603-.944-.692-.364-.08-.734-.074-1.103-.047-.557.04-1.093.165-1.62.343-.093.033-.19.055-.284.077-.023.004-.046-.01-.07-.017zm3.804 2.98c-.096-.05-.18-.1-.27-.133-.553-.213-1.125-.26-1.705-.187-.206.025-.41.084-.6.17-.483.204-.794.56-.886 1.095-.106.618.19.982.78 1.127.06.015.12.023.18.023.21 0 .42.007.63-.017.887-.093 1.864-.713 1.87-2.08zM232.64 72.755c.12-.312.117-.59.056-.868-.056-.25-.173-.46-.367-.628-.193-.168-.424-.25-.666-.3-.38-.078-.76-.07-1.14-.038-.556.043-1.094.18-1.62.354-.09.034-.186.053-.3.082-.142-.317-.138-.656-.187-.98-.048-.313-.124-.626-.105-.955.21-.148.453-.2.68-.284 1.056-.384 2.152-.51 3.273-.45.48.023.95.104 1.4.306.812.364 1.283.99 1.432 1.876.104.617.063 1.23-.035 1.84-.24 1.468-.49 2.936-.738 4.405-.04.242-.085.485-.132.73-.01.055-.036.11-.054.162-.304.048-1.94.05-2.315.002-.088-.268.127-.54.038-.81-.073-.04-.12.008-.17.043-.206.152-.407.314-.625.452-.546.335-1.144.507-1.787.513-.422.003-.833-.006-1.242-.13-.886-.27-1.49-.95-1.54-1.873-.07-1.29.37-2.372 1.47-3.123.52-.35 1.107-.545 1.724-.608.7-.074 1.404-.093 2.098.054.207.043.404.113.604.166.07.018.144.033.248.06zm-.226 1.57c-.328-.207-.67-.273-1.005-.324-.47-.07-.936-.05-1.39.095-.115.04-.23.09-.34.146-.375.202-.612.515-.713.937-.13.56.062 1.067.763 1.192.554.1 1.106.04 1.615-.227.72-.383 1.06-.99 1.07-1.818zM307.25 72.745c.03-.044.063-.073.07-.103.072-.307.068-.613-.035-.912-.103-.295-.298-.506-.578-.64-.226-.107-.466-.163-.712-.18-.482-.025-.96-.01-1.433.097-.35.08-.688.188-1.032.276-.092.026-.185.048-.29.07-.024-.06-.05-.103-.058-.15l-.242-1.678c-.003-.038.012-.07.022-.125.282-.14.585-.235.888-.34.98-.326 1.998-.422 3.026-.374.503.024 1 .108 1.468.323.764.353 1.213.943 1.372 1.763.128.662.08 1.326-.027 1.984-.242 1.495-.494 2.987-.743 4.48-.042.256-.095.507-.146.768-.265.076-.522.03-.777.038-.26.008-.52.005-.777 0-.256 0-.51.013-.753-.01-.07-.17-.024-.3-.006-.434.02-.133.063-.262.046-.39-.1-.076-.155-.005-.205.04-.322.267-.67.502-1.058.67-.396.173-.814.275-1.25.283-.42.007-.837.02-1.248-.097-.722-.2-1.25-.617-1.516-1.334-.126-.342-.144-.698-.117-1.056.065-.938.4-1.745 1.12-2.374.488-.42 1.058-.686 1.684-.8 1.028-.188 2.06-.194 3.065.142.08.03.16.042.24.06zm-.2 1.566c-.142-.06-.273-.132-.408-.173-.19-.06-.38-.11-.572-.137-.51-.065-1.008-.052-1.495.124-.54.195-.875.567-.987 1.137-.093.48.103.86.552 1.04.115.044.233.08.356.087.244.01.493.016.733-.012 1.094-.125 1.8-.913 1.82-2.064zM219.656 78.032h-2.348c-.097-.08-.066-.168-.054-.254.13-.788.26-1.578.395-2.367.143-.86.292-1.722.435-2.588.208-1.26.418-2.52.628-3.78.008-.064.036-.118.056-.187.06-.016.117-.04.176-.043h2.067c.048 0 .098.016.16.03.07.38-.153.736-.088 1.15.078-.054.13-.077.17-.112.174-.16.338-.332.513-.48.823-.68 1.762-.916 2.8-.715.905.177 1.526.728 1.73 1.825.097.52.054 1.033-.025 1.544-.205 1.253-.424 2.5-.63 3.75-.11.654-.218 1.31-.325 1.965-.013.08-.043.16-.065.247-.075.012-.133.027-.192.027-.716-.002-1.43-.006-2.143-.01-.02 0-.04-.023-.07-.037-.04-.16.01-.315.035-.47.14-.84.28-1.675.425-2.515.13-.776.256-1.55.385-2.33.05-.31.032-.615-.063-.912-.112-.353-.343-.61-.704-.7-.738-.18-1.46.003-1.936.658-.204.286-.33.606-.395.946-.085.424-.153.846-.224 1.273-.206 1.237-.406 2.475-.613 3.713-.023.12-.062.237-.1.372zM186.453 68.81c.755-.005 1.48 0 2.204 0 .06 0 .117.02.19.036 0 .107.013.204-.004.294-.13.778-.264 1.554-.395 2.33-.144.84-.29 1.675-.42 2.515-.036.228-.05.468-.036.7.03.597.386 1.132 1.188 1.153.812.022 1.437-.395 1.757-1.164.106-.272.175-.563.23-.854.18-1.03.343-2.06.517-3.094.104-.62.214-1.24.323-1.865.063-.015.12-.045.18-.045.7-.005 1.406-.005 2.105-.004.046 0 .092.022.152.036 0 .058.005.106-.003.15-.498 3-1 5.998-1.498 9.01-.072.016-.13.035-.188.037h-2.033c-.06 0-.117-.012-.197-.02-.06-.394.11-.758.108-1.165-.07.032-.127.045-.167.078-.205.182-.396.37-.604.54-.42.342-.887.59-1.42.684-.613.102-1.228.093-1.813-.155-.66-.282-1.036-.813-1.2-1.496-.117-.488-.117-.98-.043-1.47.135-.89.29-1.772.438-2.66l.55-3.28c.016-.08.047-.162.08-.29zM215.708 78.01c-.334.048-2.063.047-2.388-.002-.063-.374.12-.737.106-1.15-.09.05-.155.076-.205.12-.253.214-.494.443-.757.647-.346.265-.736.44-1.17.52-.63.12-1.252.11-1.85-.135-.57-.23-.933-.67-1.133-1.242-.192-.548-.223-1.113-.133-1.68.154-.985.327-1.968.49-2.953.138-.825.27-1.65.41-2.477.045-.267.094-.532.145-.802.078-.016.136-.046.193-.046h2.033c.058 0 .116.018.19.03 0 .11.017.205 0 .297-.184 1.116-.378 2.23-.562 3.35-.098.572-.188 1.14-.263 1.713-.028.207-.02.422.005.63.07.572.44.944 1.013.996.758.07 1.352-.204 1.756-.857.163-.267.27-.554.326-.86.085-.487.17-.972.25-1.456.202-1.213.405-2.427.61-3.645.006-.048.022-.093.036-.156.06-.013.115-.043.172-.043h2.11c.046 0 .09.022.142.035.007.043.02.078.014.112-.487 2.937-.98 5.877-1.476 8.813-.01.09-.04.165-.062.24zM162.584 76.82c.448-.577.88-1.124 1.328-1.688l.35.266c.537.406 1.133.687 1.807.793.345.054.687.063 1.022-.042.272-.087.48-.25.573-.53.086-.26.036-.46-.183-.623-.138-.1-.292-.185-.45-.244-.367-.14-.743-.265-1.116-.395-.368-.13-.738-.266-1.076-.476-.294-.19-.542-.425-.723-.727-.2-.33-.287-.685-.27-1.06.048-1.26.593-2.24 1.67-2.916.454-.287.96-.44 1.49-.5 1.098-.117 2.135.085 3.097.627.163.09.313.197.466.3.03.02.048.054.083.1-.145.322-.375.596-.576.884-.2.29-.38.603-.644.873-.127-.066-.242-.13-.357-.194-.32-.187-.656-.342-1.003-.467-.354-.133-.72-.165-1.09-.147-.27.014-.502.122-.674.333-.22.26-.202.57.054.785.14.118.302.22.465.295.327.145.663.27.995.395.378.15.754.3 1.105.508.257.152.48.35.667.58.247.3.405.647.407 1.045.01 1.165-.392 2.146-1.33 2.868-.44.334-.938.546-1.476.647-1.255.24-2.452.097-3.58-.513-.37-.197-.714-.436-1.034-.773zM246.61 65.56c-.107.663-.207 1.283-.313 1.9-.012.07-.048.136-.077.22-.13-.035-.25-.066-.365-.1-.254-.07-.506-.103-.77-.09-.403.026-.703.213-.87.585-.106.238-.157.486-.166.77.095.02.173.05.252.05.443.006.89 0 1.333.005.117 0 .245-.028.378.054 0 .05.01.107 0 .167-.113.615-.19 1.235-.335 1.86-.096.014-.178.032-.263.032-.43.003-.86.002-1.294.002-.12 0-.242.004-.33.006-.126.09-.126.193-.14.29-.188 1.104-.373 2.21-.56 3.314-.18 1.07-.357 2.138-.536 3.207-.01.06-.027.117-.05.195-.274.036-.543.012-.812.02-.26.003-.52 0-.776 0-.27 0-.54-.004-.827-.008-.014-.356.087-.673.127-.996.042-.336.107-.68.166-1.02.054-.325.11-.654.166-.98.054-.33.11-.655.165-.983.058-.327.112-.655.164-.982.054-.343.114-.684.166-1.02.05-.326.133-.648.136-.99-.317-.108-.632-.003-.94-.08-.01-.05-.03-.096-.024-.137.104-.634.208-1.263.318-1.913.088-.02.168-.045.25-.05.134-.01.27-.003.405-.003.39-.003.385-.004.456-.37.057-.3.11-.604.19-.9.125-.47.328-.902.638-1.282.43-.53.99-.846 1.656-.96.687-.114 1.378-.086 2.058.06.13.03.257.077.423.13zM276.664 68.825c.35-.014.67-.02.98-.034.098-.158.113-.315.138-.473.083-.496.163-.994.25-1.49.02-.11.048-.215.078-.34.063-.02.13-.056.202-.057.675-.004 1.353-.004 2.03 0 .058 0 .117.022.165.03.066.13.023.233.005.343l-.29 1.672c-.014.085-.01.17-.012.234.09.114.192.095.29.095.442.006.885 0 1.328.006.12 0 .248-.026.36.055.007.036.023.073.02.106-.094.598-.192 1.193-.288 1.788-.014.07-.036.14-.062.233-.112.01-.222.022-.327.024-.444 0-.886-.002-1.33 0-.118 0-.248-.02-.374.054-.1.178-.096.394-.13.595-.178 1.017-.344 2.038-.51 3.06-.025.17-.06.34-.063.51-.01.436.21.663.646.685.325.018.63-.066.938-.163.104-.032.207-.07.326-.112.03.21-.027.39-.05.564-.06.4-.148.8-.202 1.2-.026.194-.117.31-.29.392-.864.41-1.766.508-2.7.31-.83-.178-1.153-.773-1.256-1.46-.06-.394-.02-.787.043-1.177.236-1.407.472-2.817.705-4.226.01-.06.004-.116.004-.188-.317-.105-.647.012-.966-.086-.004-.065-.023-.126-.014-.187.126-.638.192-1.287.354-1.962zM292.655 68.83c.115-.008.202-.02.288-.02.66 0 1.328.002 1.993.01.033 0 .066.022.126.042-.027.51-.17 1.007-.21 1.507.097.048.13-.007.167-.054.15-.198.285-.402.453-.583.18-.2.373-.392.587-.562.497-.408 1.087-.553 1.717-.558.045 0 .09.02.16.033-.035.23-.06.45-.102.664-.126.66-.19 1.337-.36 2-.102.012-.186.025-.27.03-1.28.085-2.166.728-2.682 1.894-.217.486-.336 1.005-.42 1.525-.167.96-.32 1.918-.483 2.877-.02.13-.02.27-.11.38-.348.04-2.056.04-2.383-.007-.005-.08-.02-.162-.008-.24.25-1.48.507-2.962.754-4.443.138-.816.264-1.63.397-2.442.102-.618.208-1.238.314-1.856.013-.062.042-.115.07-.2zM258.393 68.856c.006.53-.205 1.02-.198 1.53.096.03.13-.03.168-.075.18-.23.348-.478.542-.695.39-.43.84-.768 1.41-.903.296-.07.6-.135.932-.08.01.304-.072.59-.115.874-.047.305-.1.608-.15.912-.05.288-.072.584-.168.882-.085.015-.164.037-.25.042-1.278.073-2.168.707-2.695 1.867-.23.494-.347 1.022-.434 1.56-.16.972-.317 1.943-.476 2.913-.02.11-.058.213-.087.326-.197.066-.396.03-.59.035-.208.008-.42 0-.63 0-.193 0-.394.005-.593 0-.19 0-.387.013-.576-.013-.016-.06-.034-.097-.03-.13.492-2.974.982-5.95 1.478-8.924.008-.045.04-.087.055-.122.275-.057 1.498-.08 2.187-.045.07.006.138.03.22.046zM264.272 70.42c.06-.075.118-.146.172-.22.26-.364.545-.698.89-.982.53-.435 1.142-.61 1.815-.603.022 0 .048.016.094.03.004.062.015.13.004.2-.118.74-.242 1.48-.366 2.22-.012.084-.05.163-.078.248-.202.022-.398.036-.596.066-1.06.156-1.797.75-2.27 1.694-.272.542-.406 1.132-.502 1.73l-.473 2.877c-.018.11-.052.216-.083.33-.274.07-.544.023-.81.033-.26.008-.517.008-.778 0-.27-.01-.537.037-.8-.028-.057-.138-.02-.257-.003-.377l.71-4.224c.185-1.113.365-2.23.555-3.352.067-.4.142-.795.215-1.206.085-.016.153-.047.225-.047.663-.003 1.328-.003 1.994 0 .067 0 .142.018.225.035-.01.538-.21 1.036-.143 1.576zM299.686 78.01c-.423.053-2.173.047-2.44-.005-.004-.035-.015-.074-.01-.108.497-2.985.996-5.968 1.498-8.952.005-.033.032-.065.047-.096.27-.05 1.5-.073 2.178-.04.072.006.14.026.214.04.048.277-.04.53-.08.777-.226 1.388-.466 2.768-.7 4.15-.19 1.14-.384 2.28-.575 3.423-.046.265-.086.53-.13.81zM136.342 78.045c-.08-.186-.027-.313.006-.444.325-1.213.646-2.423.97-3.636.32-1.188.64-2.376.962-3.563.03-.102.068-.205.104-.317.438-.015.854-.02 1.29.002.01.103.03.184.025.266-.06.91-.123 1.816-.185 2.726l-.097 1.4c-.06.958-.115 1.915-.177 2.873-.015.217-.05.436-.077.66-.326.065-.628.027-.935.034-.32.008-.64.002-.96 0h-.926zM312.34 65.996c.312-.054 2.495-.054 2.814.002-.006.08.002.168-.017.243-.145.564-.288 1.122-.436 1.682l-.806 2.99-.736 2.744c-.02.07-.047.14-.072.204-.277.062-.93.07-1.286.013-.082-.095-.042-.21-.038-.315.04-.712.087-1.424.134-2.136.087-1.313.17-2.626.258-3.94.025-.383.054-.76.083-1.143.008-.122.014-.247.103-.344zM310.474 78.01c-.02-.33.228-1.92.415-2.652.042-.013.1-.04.155-.042.75-.002 1.5-.002 2.25 0 .045 0 .096.017.154.03 0 .078.012.146 0 .217-.115.716-.232 1.43-.35 2.146-.016.105-.055.207-.08.302-.345.045-2.208.045-2.546 0zM140.994 65.99c.014.046.035.08.03.11-.13.804-.26 1.604-.394 2.4-.008.05-.042.09-.06.13-.278.05-1.593.075-2.33.04-.07-.005-.14-.026-.216-.04-.028-.275.044-.526.088-.778.107-.614.184-1.235.332-1.86.295-.064.58-.03.857-.034.284-.01.568-.01.85 0 .28.004.564-.034.844.032zM158.544 67.688c.046-.08.07-.136.103-.183.64-.885 1.97-2.563 2.19-2.766.272.075 1.548.7 1.896.93-.036.045-.062.095-.107.128-.682.58-1.366 1.16-2.046 1.74-.14.12-.282.18-.465.173-.444-.01-.886 0-1.33 0-.065 0-.134-.012-.24-.022zM299.18 67.698c.21-.362 2.066-2.755 2.283-2.958.346.103 1.686.765 1.907.95-.044.044-.08.088-.128.13-.663.565-1.333 1.126-1.992 1.697-.17.15-.342.213-.565.206-.406-.012-.812 0-1.215-.005-.085 0-.167-.01-.29-.02z"/></g></svg>